<svg xmlns="http://www.w3.org/2000/svg" xmlns:xlink="http://www.w3.org/1999/xlink" viewBox="0 0 526.93 387.21"><defs><style>.cls-1{fill:url(#linear-gradient);}.cls-2{fill:url(#linear-gradient-2);}.cls-3{fill:url(#linear-gradient-3);}.cls-4{fill:url(#linear-gradient-4);}.cls-5{fill:url(#linear-gradient-5);}.cls-6{fill:url(#linear-gradient-6);}.cls-7{fill:url(#linear-gradient-7);}.cls-8{fill:url(#linear-gradient-8);}</style><linearGradient id="linear-gradient" x1="208.11" y1="-12.65" x2="204.47" y2="266.23" gradientUnits="userSpaceOnUse"><stop offset="0" stop-color="#b9aaff"/><stop offset="0.18" stop-color="#a188ff"/><stop offset="0.53" stop-color="#6e3fff"/><stop offset="0.7" stop-color="#7470ff"/><stop offset="1" stop-color="#7fc0ff"/></linearGradient><linearGradient id="linear-gradient-2" x1="265.28" y1="-11.91" x2="261.63" y2="266.98" xlink:href="#linear-gradient"/><linearGradient id="linear-gradient-3" x1="27.36" y1="290.17" x2="26.44" y2="384.04" xlink:href="#linear-gradient"/><linearGradient id="linear-gradient-4" x1="118.75" y1="291.06" x2="117.84" y2="384.93" xlink:href="#linear-gradient"/><linearGradient id="linear-gradient-5" x1="217.44" y1="292.01" x2="216.53" y2="385.89" xlink:href="#linear-gradient"/><linearGradient id="linear-gradient-6" x1="308.24" y1="292.89" x2="307.33" y2="386.77" xlink:href="#linear-gradient"/><linearGradient id="linear-gradient-7" x1="397.54" y1="293.76" x2="396.63" y2="387.64" xlink:href="#linear-gradient"/><linearGradient id="linear-gradient-8" x1="496.48" y1="294.72" x2="495.57" y2="388.6" xlink:href="#linear-gradient"/></defs><g id="Layer_2" data-name="Layer 2"><g id="Layer_1-2" data-name="Layer 1"><polygon class="cls-1" points="148.59 253.48 166.43 253.48 166.43 185.37 236.48 253.48 262.16 253.48 148.59 140.63 148.59 253.48"/><polygon class="cls-2" points="361.1 236.23 361.04 236.23 251.27 126.89 377.48 0 349.09 0 222.87 126.92 332.52 236.23 302.17 236.23 192.4 126.89 318.41 0.21 318.61 0 318.61 0 318.61 0 290.24 0 290.23 0 262.16 0 236.48 0 166.43 68.11 166.43 0 148.59 0 148.59 112.86 245.16 16.9 273.43 16.9 163.99 126.92 290.95 253.48 319.48 253.48 349.82 253.48 378.35 253.48 361.1 236.23"/><polygon class="cls-3" points="51.15 316.92 42.72 316.92 6.71 366.42 6.71 316.92 0 316.92 0 387.2 22.07 356.94 44.65 383.8 53.54 383.8 26.11 351.21 51.15 316.92"/><path class="cls-4" d="M135.15,320.8a33.75,33.75,0,0,0-33.95,0,34.28,34.28,0,0,0,0,59.12,33.75,33.75,0,0,0,34,0,34.29,34.29,0,0,0,0-59.12Zm6.42,43.27a27.29,27.29,0,0,1-9.85,9.94,26.79,26.79,0,0,1-27.1,0,27.69,27.69,0,0,1-9.9-9.95,27.34,27.34,0,0,1,0-27.4,27.69,27.69,0,0,1,9.9-10,26.79,26.79,0,0,1,27.1,0,27.29,27.29,0,0,1,9.85,9.94,27.71,27.71,0,0,1,0,27.42Z"/><path class="cls-5" d="M231,350.38a20.52,20.52,0,0,0-4.63-1.8,47.36,47.36,0,0,0-5.5-1.12l-3.5-.5c-2.61-.32-4.79-.64-6.46-.93a17.34,17.34,0,0,1-4.32-1.34,15,15,0,0,1-5.27-4.4,9,9,0,0,1-2.06-5.44,8.26,8.26,0,0,1,1.23-4.26,13.44,13.44,0,0,1,3.7-3.91,17.79,17.79,0,0,1,5.75-2.85,25,25,0,0,1,13.93,0,18.66,18.66,0,0,1,5.81,2.86,13.26,13.26,0,0,1,3.54,3.85,8.94,8.94,0,0,1,1.29,4.25l.08,1.82,6.55-3.66-.13-.78c-.71-4.11-3.13-7.76-7.22-10.86a28.35,28.35,0,0,0-16.86-5.18,30.74,30.74,0,0,0-9.08,1.34,26.6,26.6,0,0,0-7.79,3.84,19.78,19.78,0,0,0-5.53,6.07,14.89,14.89,0,0,0-2,7.47,15.49,15.49,0,0,0,3,9.14,21,21,0,0,0,8.08,6.68,27.91,27.91,0,0,0,7.72,2.29l5.07.8c5.47.64,9.29,1.51,11.33,2.56a14.88,14.88,0,0,1,5.05,4.24,8.51,8.51,0,0,1,1.72,5.12c0,3.16-1.57,5.86-4.82,8.25a20.82,20.82,0,0,1-12.76,3.86,24.48,24.48,0,0,1-7-1,17.62,17.62,0,0,1-5.76-2.89c-3.11-2.13-4.71-4.77-4.89-8.09l-.09-1.78-6.55,3.65.15.8a17.69,17.69,0,0,0,7.31,10.93,26.42,26.42,0,0,0,7.78,3.84,30.8,30.8,0,0,0,9.08,1.35,28.46,28.46,0,0,0,16.88-5.19,18.79,18.79,0,0,0,5.49-6.19,15.77,15.77,0,0,0,1.92-7.54,15.09,15.09,0,0,0-2.73-8.64A21.79,21.79,0,0,0,231,350.38Z"/><polygon class="cls-6" points="278.96 323.73 304.62 323.73 304.62 383.8 311.43 383.8 311.43 323.73 336.99 323.73 336.99 316.92 278.96 316.92 278.96 323.73"/><polygon class="cls-7" points="365.35 383.8 372.78 383.8 397.31 331 410.44 360.68 413.41 367.39 420.67 383.8 427.98 383.8 397.56 314.53 365.35 383.8"/><polygon class="cls-8" points="496.52 314.53 464.3 383.8 471.73 383.8 496.26 331 509.39 360.68 512.36 367.39 519.63 383.8 526.93 383.8 496.52 314.53"/></g></g></svg>